<?xml version="1.0" encoding="UTF-8" standalone="no"?>
<svg
   fill="none"
   viewBox="0 0 348 348"
   version="1.1"
   id="svg10"
   sodipodi:docname="cabbagePatch.svg"
   inkscape:version="1.3 (0e150ed6c4, 2023-07-21)"
   xmlns:inkscape="http://www.inkscape.org/namespaces/inkscape"
   xmlns:sodipodi="http://sodipodi.sourceforge.net/DTD/sodipodi-0.dtd"
   xmlns="http://www.w3.org/2000/svg"
   xmlns:svg="http://www.w3.org/2000/svg">
  <defs
     id="defs10" />
  <sodipodi:namedview
     id="namedview10"
     pagecolor="#ffffff"
     bordercolor="#000000"
     borderopacity="0.25"
     inkscape:showpageshadow="2"
     inkscape:pageopacity="0.0"
     inkscape:pagecheckerboard="0"
     inkscape:deskcolor="#d1d1d1"
     inkscape:zoom="2.2327586"
     inkscape:cx="173.77606"
     inkscape:cy="174"
     inkscape:window-width="1920"
     inkscape:window-height="991"
     inkscape:window-x="-9"
     inkscape:window-y="-9"
     inkscape:window-maximized="1"
     inkscape:current-layer="svg10" />
  <path
     stroke="#000"
     stroke-width="2"
     d="M5.08 5.78h336.91v337.67H5.08z"
     id="path1" />
  <path
     stroke="#000"
     stroke-width="2"
     d="M282.73 40.55c0-8.37 6.97-15.16 15.56-15.16 4.13 0 8.09 1.6 11 4.44a14.97 14.97 0 0 1 4.56 10.72c0 8.38-6.96 15.17-15.56 15.17-8.59 0-15.56-6.8-15.56-15.17z"
     id="path2" />
  <path
     stroke="#000000"
     stroke-linecap="square"
     stroke-width="3.31"
     d="M 35.781853,116.44598 H 229.19185 v 193.41 H 35.781853 Z"
     id="path3" />
  <path
     style="fill:#000000"
     d="m 50.236845,140.88875 c 6.043051,0.4274 -5.908238,-0.44788 3.583012,-0.44788 0.8674,0 2.823979,-0.37951 3.583011,0 1.276595,0.6383 4.992451,2.81888 5.374517,3.58302 0.819496,1.63899 0.29585,1.1916 1.34363,2.23938 0.223938,0.22394 -0.223938,1.11969 0,1.34363 0.522522,0.52252 0.821107,1.26898 1.343629,1.7915 0.450183,0.45019 -0.07023,4.71594 0.447877,6.27027 0.305188,0.91557 -0.644339,3.83443 0,4.47877 1.495277,1.49528 1.791505,-7.96079 1.791505,-9.40541 0,-0.49748 -0.316697,-2.81844 0,-3.13513 0.301517,-0.30152 0.565991,-0.23623 0.895753,-0.89576 0.314211,-0.62842 0.120152,-1.58393 0.447877,-2.23938 0.365108,-0.73021 1.410069,-0.96219 1.791506,-1.34363 0.149292,-0.14929 0.298584,-1.19433 0.447876,-1.34363 0.770079,-0.77008 1.490211,-0.52116 2.239382,-0.89575 0.538873,-0.26944 1.659116,-1.27743 1.791506,-1.34363 0.517287,-0.25864 2.061346,0 2.687259,0 1.194337,0 -0.149292,0.14929 0.447876,-0.44788 0.597169,-0.59716 2.985843,0.59717 3.583012,0 1.055223,-1.05522 -1.471161,-2.36691 -1.791506,-2.68725 -1.408892,-1.4089 -7.306219,-2.09919 -8.957529,-0.44788 -0.467004,0.467 -0.744769,4.32778 -0.895753,4.47876 -0.3264,0.3264 -0.90188,0.90188 -1.343629,1.34363 -0.211131,0.21113 -0.684622,-0.21113 -0.895753,0 -0.211131,0.21113 0.211131,0.68463 0,0.89576 -0.275162,0.27516 -1.043697,0.29588 -1.343629,0.89575 -0.135208,0.27042 0.207037,1.13659 0,1.34363 -0.105566,0.10556 -0.381111,-0.13353 -0.447877,0 -0.156204,0.31241 0.09546,5.0221 -0.447876,4.47876 -0.723518,-0.72351 0.692212,-8.26531 0.447876,-8.50965 -0.310387,-0.31039 -0.458008,-1.12476 -0.895753,-1.34363 -0.267062,-0.13353 -0.684622,0.21113 -0.895753,0 -0.756789,-0.75679 -1.53857,-1.53857 -2.239382,-2.23938 -0.447876,-0.44788 -2.239382,0.44788 -2.687259,0 -0.105565,-0.10557 0.105566,-0.34231 0,-0.44788 -0.195568,-0.19557 -4.608076,-0.38322 -5.374517,0 -0.62069,0.31035 -1.094574,1.09458 -1.343629,1.34363 -0.149293,0.14929 -1.194338,0.29859 -1.34363,0.44788 -0.615547,0.61555 -0.82132,1.54297 -1.343629,2.23938 z"
     id="path14" />
  <path
     style="fill:#000000"
     d="m 180.23685,140.88875 c 6.04305,0.4274 -5.90824,-0.44788 3.58301,-0.44788 0.8674,0 2.82398,-0.37951 3.58301,0 1.2766,0.6383 4.99245,2.81888 5.37452,3.58302 0.81949,1.63899 0.29585,1.1916 1.34363,2.23938 0.22394,0.22394 -0.22394,1.11969 0,1.34363 0.52252,0.52252 0.8211,1.26898 1.34363,1.7915 0.45018,0.45019 -0.0702,4.71594 0.44787,6.27027 0.30519,0.91557 -0.64433,3.83443 0,4.47877 1.49528,1.49528 1.79151,-7.96079 1.79151,-9.40541 0,-0.49748 -0.3167,-2.81844 0,-3.13513 0.30152,-0.30152 0.56599,-0.23623 0.89575,-0.89576 0.31421,-0.62842 0.12015,-1.58393 0.44788,-2.23938 0.36511,-0.73021 1.41007,-0.96219 1.7915,-1.34363 0.1493,-0.14929 0.29859,-1.19433 0.44788,-1.34363 0.77008,-0.77008 1.49021,-0.52116 2.23938,-0.89575 0.53888,-0.26944 1.65912,-1.27743 1.79151,-1.34363 0.51729,-0.25864 2.06134,0 2.68726,0 1.19433,0 -0.14929,0.14929 0.44787,-0.44788 0.59717,-0.59716 2.98585,0.59717 3.58302,0 1.05522,-1.05522 -1.47117,-2.36691 -1.79151,-2.68725 -1.40889,-1.4089 -7.30622,-2.09919 -8.95753,-0.44788 -0.467,0.467 -0.74477,4.32778 -0.89575,4.47876 -0.3264,0.3264 -0.90188,0.90188 -1.34363,1.34363 -0.21113,0.21113 -0.68462,-0.21113 -0.89575,0 -0.21114,0.21113 0.21113,0.68463 0,0.89576 -0.27517,0.27516 -1.0437,0.29588 -1.34363,0.89575 -0.13521,0.27042 0.20703,1.13659 0,1.34363 -0.10557,0.10556 -0.38111,-0.13353 -0.44788,0 -0.1562,0.31241 0.0955,5.0221 -0.44788,4.47876 -0.72351,-0.72351 0.69222,-8.26531 0.44788,-8.50965 -0.31039,-0.31039 -0.45801,-1.12476 -0.89575,-1.34363 -0.26707,-0.13353 -0.68463,0.21113 -0.89576,0 -0.75679,-0.75679 -1.53857,-1.53857 -2.23938,-2.23938 -0.44787,-0.44788 -2.23938,0.44788 -2.68726,0 -0.10556,-0.10557 0.10557,-0.34231 0,-0.44788 -0.19557,-0.19557 -4.60807,-0.38322 -5.37451,0 -0.62069,0.31035 -1.09458,1.09458 -1.34363,1.34363 -0.1493,0.14929 -1.19434,0.29859 -1.34363,0.44788 -0.61555,0.61555 -0.82132,1.54297 -1.34363,2.23938 z"
     id="path14-7" />
  <path
     style="fill:#000000"
     d="m 115.23685,140.88875 c 6.04305,0.4274 -5.90825,-0.44788 3.58301,-0.44788 0.8674,0 2.82398,-0.37951 3.58301,0 1.2766,0.6383 4.99245,2.81888 5.37452,3.58302 0.81949,1.63899 0.29585,1.1916 1.34363,2.23938 0.22394,0.22394 -0.22394,1.11969 0,1.34363 0.52252,0.52252 0.8211,1.26898 1.34363,1.7915 0.45018,0.45019 -0.0702,4.71594 0.44787,6.27027 0.30519,0.91557 -0.64433,3.83443 0,4.47877 1.49528,1.49528 1.79151,-7.96079 1.79151,-9.40541 0,-0.49748 -0.3167,-2.81844 0,-3.13513 0.30152,-0.30152 0.56599,-0.23623 0.89575,-0.89576 0.31421,-0.62842 0.12015,-1.58393 0.44788,-2.23938 0.36511,-0.73021 1.41007,-0.96219 1.7915,-1.34363 0.1493,-0.14929 0.29859,-1.19433 0.44788,-1.34363 0.77008,-0.77008 1.49021,-0.52116 2.23938,-0.89575 0.53888,-0.26944 1.65912,-1.27743 1.79151,-1.34363 0.51729,-0.25864 2.06134,0 2.68726,0 1.19433,0 -0.14929,0.14929 0.44787,-0.44788 0.59717,-0.59716 2.98585,0.59717 3.58302,0 1.05522,-1.05522 -1.47117,-2.36691 -1.79151,-2.68725 -1.40889,-1.4089 -7.30622,-2.09919 -8.95753,-0.44788 -0.467,0.467 -0.74477,4.32778 -0.89575,4.47876 -0.3264,0.3264 -0.90188,0.90188 -1.34363,1.34363 -0.21113,0.21113 -0.68462,-0.21113 -0.89575,0 -0.21114,0.21113 0.21113,0.68463 0,0.89576 -0.27517,0.27516 -1.0437,0.29588 -1.34363,0.89575 -0.13521,0.27042 0.20703,1.13659 0,1.34363 -0.10557,0.10556 -0.38111,-0.13353 -0.44788,0 -0.1562,0.31241 0.0955,5.0221 -0.44788,4.47876 -0.72351,-0.72351 0.69222,-8.26531 0.44788,-8.50965 -0.31039,-0.31039 -0.45801,-1.12476 -0.89575,-1.34363 -0.26707,-0.13353 -0.68463,0.21113 -0.89576,0 -0.75679,-0.75679 -1.53857,-1.53857 -2.23938,-2.23938 -0.44787,-0.44788 -2.23938,0.44788 -2.68726,0 -0.10556,-0.10557 0.10557,-0.34231 0,-0.44788 -0.19557,-0.19557 -4.60807,-0.38322 -5.37451,0 -0.62069,0.31035 -1.09458,1.09458 -1.34363,1.34363 -0.1493,0.14929 -1.19434,0.29859 -1.34363,0.44788 -0.61555,0.61555 -0.82132,1.54297 -1.34363,2.23938 z"
     id="path14-1" />
  <path
     style="fill:#000000"
     d="m 50.236845,205.88875 c 6.043051,0.4274 -5.908238,-0.44788 3.583012,-0.44788 0.8674,0 2.823979,-0.37951 3.583013,0 1.27659,0.6383 4.99245,2.81888 5.37451,3.58302 0.8195,1.63899 0.29585,1.1916 1.34364,2.23938 0.22393,0.22394 -0.22394,1.11969 0,1.34363 0.52252,0.52252 0.8211,1.26898 1.34362,1.7915 0.45019,0.45019 -0.0702,4.71594 0.44788,6.27027 0.30519,0.91557 -0.64434,3.83443 0,4.47877 1.49528,1.49528 1.79151,-7.96079 1.79151,-9.40541 0,-0.49748 -0.3167,-2.81844 0,-3.13513 0.30151,-0.30152 0.56599,-0.23623 0.89575,-0.89576 0.31421,-0.62842 0.12015,-1.58393 0.44788,-2.23938 0.3651,-0.73021 1.41007,-0.96219 1.7915,-1.34363 0.14929,-0.14929 0.29859,-1.19433 0.44788,-1.34363 0.77008,-0.77008 1.49021,-0.52116 2.23938,-0.89575 0.53887,-0.26944 1.65912,-1.27743 1.79151,-1.34363 0.51728,-0.25864 2.06134,0 2.68725,0 1.19434,0 -0.14929,0.14929 0.44788,-0.44788 0.59717,-0.59716 2.98584,0.59717 3.58301,0 1.05523,-1.05522 -1.47116,-2.36691 -1.7915,-2.68725 -1.4089,-1.4089 -7.30622,-2.09919 -8.95753,-0.44788 -0.46701,0.467 -0.74477,4.32778 -0.89576,4.47876 -0.3264,0.3264 -0.90188,0.90188 -1.34362,1.34363 -0.21114,0.21113 -0.68463,-0.21113 -0.89576,0 -0.21113,0.21113 0.21113,0.68463 0,0.89576 -0.27516,0.27516 -1.04369,0.29588 -1.34363,0.89575 -0.1352,0.27042 0.20704,1.13659 0,1.34363 -0.10556,0.10556 -0.38111,-0.13353 -0.44787,0 -0.15621,0.31241 0.0955,5.0221 -0.44788,4.47876 -0.72352,-0.72351 0.69221,-8.26531 0.44788,-8.50965 -0.31039,-0.31039 -0.45801,-1.12476 -0.89576,-1.34363 -0.26706,-0.13353 -0.68462,0.21113 -0.89575,0 -0.75679,-0.75679 -1.53857,-1.53857 -2.23938,-2.23938 -0.44788,-0.44788 -2.23938,0.44788 -2.68726,0 -0.10557,-0.10557 0.10557,-0.34231 0,-0.44788 -0.19557,-0.19557 -4.608076,-0.38322 -5.374517,0 -0.62069,0.31035 -1.094574,1.09458 -1.343629,1.34363 -0.149293,0.14929 -1.194338,0.29859 -1.34363,0.44788 -0.615547,0.61555 -0.82132,1.54297 -1.343629,2.23938 z"
     id="path14-0" />
  <path
     style="fill:#000000"
     d="m 180.23685,205.88875 c 6.04305,0.4274 -5.90824,-0.44788 3.58301,-0.44788 0.8674,0 2.82398,-0.37951 3.58301,0 1.2766,0.6383 4.99245,2.81888 5.37452,3.58302 0.81949,1.63899 0.29585,1.1916 1.34363,2.23938 0.22394,0.22394 -0.22394,1.11969 0,1.34363 0.52252,0.52252 0.8211,1.26898 1.34363,1.7915 0.45018,0.45019 -0.0702,4.71594 0.44787,6.27027 0.30519,0.91557 -0.64433,3.83443 0,4.47877 1.49528,1.49528 1.79151,-7.96079 1.79151,-9.40541 0,-0.49748 -0.3167,-2.81844 0,-3.13513 0.30152,-0.30152 0.56599,-0.23623 0.89575,-0.89576 0.31421,-0.62842 0.12015,-1.58393 0.44788,-2.23938 0.36511,-0.73021 1.41007,-0.96219 1.7915,-1.34363 0.1493,-0.14929 0.29859,-1.19433 0.44788,-1.34363 0.77008,-0.77008 1.49021,-0.52116 2.23938,-0.89575 0.53888,-0.26944 1.65912,-1.27743 1.79151,-1.34363 0.51729,-0.25864 2.06134,0 2.68726,0 1.19433,0 -0.14929,0.14929 0.44787,-0.44788 0.59717,-0.59716 2.98585,0.59717 3.58302,0 1.05522,-1.05522 -1.47117,-2.36691 -1.79151,-2.68725 -1.40889,-1.4089 -7.30622,-2.09919 -8.95753,-0.44788 -0.467,0.467 -0.74477,4.32778 -0.89575,4.47876 -0.3264,0.3264 -0.90188,0.90188 -1.34363,1.34363 -0.21113,0.21113 -0.68462,-0.21113 -0.89575,0 -0.21114,0.21113 0.21113,0.68463 0,0.89576 -0.27517,0.27516 -1.0437,0.29588 -1.34363,0.89575 -0.13521,0.27042 0.20703,1.13659 0,1.34363 -0.10557,0.10556 -0.38111,-0.13353 -0.44788,0 -0.1562,0.31241 0.0955,5.0221 -0.44788,4.47876 -0.72351,-0.72351 0.69222,-8.26531 0.44788,-8.50965 -0.31039,-0.31039 -0.45801,-1.12476 -0.89575,-1.34363 -0.26707,-0.13353 -0.68463,0.21113 -0.89576,0 -0.75679,-0.75679 -1.53857,-1.53857 -2.23938,-2.23938 -0.44787,-0.44788 -2.23938,0.44788 -2.68726,0 -0.10556,-0.10557 0.10557,-0.34231 0,-0.44788 -0.19557,-0.19557 -4.60807,-0.38322 -5.37451,0 -0.62069,0.31035 -1.09458,1.09458 -1.34363,1.34363 -0.1493,0.14929 -1.19434,0.29859 -1.34363,0.44788 -0.61555,0.61555 -0.82132,1.54297 -1.34363,2.23938 z"
     id="path14-7-7" />
  <path
     style="fill:#000000"
     d="m 115.23685,205.88875 c 6.04305,0.4274 -5.90825,-0.44788 3.58301,-0.44788 0.8674,0 2.82398,-0.37951 3.58301,0 1.2766,0.6383 4.99245,2.81888 5.37452,3.58302 0.81949,1.63899 0.29585,1.1916 1.34363,2.23938 0.22394,0.22394 -0.22394,1.11969 0,1.34363 0.52252,0.52252 0.8211,1.26898 1.34363,1.7915 0.45018,0.45019 -0.0702,4.71594 0.44787,6.27027 0.30519,0.91557 -0.64433,3.83443 0,4.47877 1.49528,1.49528 1.79151,-7.96079 1.79151,-9.40541 0,-0.49748 -0.3167,-2.81844 0,-3.13513 0.30152,-0.30152 0.56599,-0.23623 0.89575,-0.89576 0.31421,-0.62842 0.12015,-1.58393 0.44788,-2.23938 0.36511,-0.73021 1.41007,-0.96219 1.7915,-1.34363 0.1493,-0.14929 0.29859,-1.19433 0.44788,-1.34363 0.77008,-0.77008 1.49021,-0.52116 2.23938,-0.89575 0.53888,-0.26944 1.65912,-1.27743 1.79151,-1.34363 0.51729,-0.25864 2.06134,0 2.68726,0 1.19433,0 -0.14929,0.14929 0.44787,-0.44788 0.59717,-0.59716 2.98585,0.59717 3.58302,0 1.05522,-1.05522 -1.47117,-2.36691 -1.79151,-2.68725 -1.40889,-1.4089 -7.30622,-2.09919 -8.95753,-0.44788 -0.467,0.467 -0.74477,4.32778 -0.89575,4.47876 -0.3264,0.3264 -0.90188,0.90188 -1.34363,1.34363 -0.21113,0.21113 -0.68462,-0.21113 -0.89575,0 -0.21114,0.21113 0.21113,0.68463 0,0.89576 -0.27517,0.27516 -1.0437,0.29588 -1.34363,0.89575 -0.13521,0.27042 0.20703,1.13659 0,1.34363 -0.10557,0.10556 -0.38111,-0.13353 -0.44788,0 -0.1562,0.31241 0.0955,5.0221 -0.44788,4.47876 -0.72351,-0.72351 0.69222,-8.26531 0.44788,-8.50965 -0.31039,-0.31039 -0.45801,-1.12476 -0.89575,-1.34363 -0.26707,-0.13353 -0.68463,0.21113 -0.89576,0 -0.75679,-0.75679 -1.53857,-1.53857 -2.23938,-2.23938 -0.44787,-0.44788 -2.23938,0.44788 -2.68726,0 -0.10556,-0.10557 0.10557,-0.34231 0,-0.44788 -0.19557,-0.19557 -4.60807,-0.38322 -5.37451,0 -0.62069,0.31035 -1.09458,1.09458 -1.34363,1.34363 -0.1493,0.14929 -1.19434,0.29859 -1.34363,0.44788 -0.61555,0.61555 -0.82132,1.54297 -1.34363,2.23938 z"
     id="path14-1-4" />
  <path
     style="fill:#000000"
     d="m 50.236845,265.88875 c 6.043051,0.4274 -5.908238,-0.44788 3.583012,-0.44788 0.8674,0 2.823979,-0.37951 3.583013,0 1.27659,0.6383 4.99245,2.81888 5.37451,3.58302 0.8195,1.63899 0.29585,1.1916 1.34364,2.23938 0.22393,0.22394 -0.22394,1.11969 0,1.34363 0.52252,0.52252 0.8211,1.26898 1.34362,1.7915 0.45019,0.45019 -0.0702,4.71594 0.44788,6.27027 0.30519,0.91557 -0.64434,3.83443 0,4.47877 1.49528,1.49528 1.79151,-7.96079 1.79151,-9.40541 0,-0.49748 -0.3167,-2.81844 0,-3.13513 0.30151,-0.30152 0.56599,-0.23623 0.89575,-0.89576 0.31421,-0.62842 0.12015,-1.58393 0.44788,-2.23938 0.3651,-0.73021 1.41007,-0.96219 1.7915,-1.34363 0.14929,-0.14929 0.29859,-1.19433 0.44788,-1.34363 0.77008,-0.77008 1.49021,-0.52116 2.23938,-0.89575 0.53887,-0.26944 1.65912,-1.27743 1.79151,-1.34363 0.51728,-0.25864 2.06134,0 2.68725,0 1.19434,0 -0.14929,0.14929 0.44788,-0.44788 0.59717,-0.59716 2.98584,0.59717 3.58301,0 1.05523,-1.05522 -1.47116,-2.36691 -1.7915,-2.68725 -1.4089,-1.4089 -7.30622,-2.09919 -8.95753,-0.44788 -0.46701,0.467 -0.74477,4.32778 -0.89576,4.47876 -0.3264,0.3264 -0.90188,0.90188 -1.34362,1.34363 -0.21114,0.21113 -0.68463,-0.21113 -0.89576,0 -0.21113,0.21113 0.21113,0.68463 0,0.89576 -0.27516,0.27516 -1.04369,0.29588 -1.34363,0.89575 -0.1352,0.27042 0.20704,1.13659 0,1.34363 -0.10556,0.10556 -0.38111,-0.13353 -0.44787,0 -0.15621,0.31241 0.0955,5.0221 -0.44788,4.47876 -0.72352,-0.72351 0.69221,-8.26531 0.44788,-8.50965 -0.31039,-0.31039 -0.45801,-1.12476 -0.89576,-1.34363 -0.26706,-0.13353 -0.68462,0.21113 -0.89575,0 -0.75679,-0.75679 -1.53857,-1.53857 -2.23938,-2.23938 -0.44788,-0.44788 -2.23938,0.44788 -2.68726,0 -0.10557,-0.10557 0.10557,-0.34231 0,-0.44788 -0.19557,-0.19557 -4.608076,-0.38322 -5.374517,0 -0.62069,0.31035 -1.094574,1.09458 -1.343629,1.34363 -0.149293,0.14929 -1.194338,0.29859 -1.34363,0.44788 -0.615547,0.61555 -0.82132,1.54297 -1.343629,2.23938 z"
     id="path14-0-5" />
  <path
     style="fill:#000000"
     d="m 180.23685,265.88875 c 6.04305,0.4274 -5.90824,-0.44788 3.58301,-0.44788 0.8674,0 2.82398,-0.37951 3.58301,0 1.2766,0.6383 4.99245,2.81888 5.37452,3.58302 0.81949,1.63899 0.29585,1.1916 1.34363,2.23938 0.22394,0.22394 -0.22394,1.11969 0,1.34363 0.52252,0.52252 0.8211,1.26898 1.34363,1.7915 0.45018,0.45019 -0.0702,4.71594 0.44787,6.27027 0.30519,0.91557 -0.64433,3.83443 0,4.47877 1.49528,1.49528 1.79151,-7.96079 1.79151,-9.40541 0,-0.49748 -0.3167,-2.81844 0,-3.13513 0.30152,-0.30152 0.56599,-0.23623 0.89575,-0.89576 0.31421,-0.62842 0.12015,-1.58393 0.44788,-2.23938 0.36511,-0.73021 1.41007,-0.96219 1.7915,-1.34363 0.1493,-0.14929 0.29859,-1.19433 0.44788,-1.34363 0.77008,-0.77008 1.49021,-0.52116 2.23938,-0.89575 0.53888,-0.26944 1.65912,-1.27743 1.79151,-1.34363 0.51729,-0.25864 2.06134,0 2.68726,0 1.19433,0 -0.14929,0.14929 0.44787,-0.44788 0.59717,-0.59716 2.98585,0.59717 3.58302,0 1.05522,-1.05522 -1.47117,-2.36691 -1.79151,-2.68725 -1.40889,-1.4089 -7.30622,-2.09919 -8.95753,-0.44788 -0.467,0.467 -0.74477,4.32778 -0.89575,4.47876 -0.3264,0.3264 -0.90188,0.90188 -1.34363,1.34363 -0.21113,0.21113 -0.68462,-0.21113 -0.89575,0 -0.21114,0.21113 0.21113,0.68463 0,0.89576 -0.27517,0.27516 -1.0437,0.29588 -1.34363,0.89575 -0.13521,0.27042 0.20703,1.13659 0,1.34363 -0.10557,0.10556 -0.38111,-0.13353 -0.44788,0 -0.1562,0.31241 0.0955,5.0221 -0.44788,4.47876 -0.72351,-0.72351 0.69222,-8.26531 0.44788,-8.50965 -0.31039,-0.31039 -0.45801,-1.12476 -0.89575,-1.34363 -0.26707,-0.13353 -0.68463,0.21113 -0.89576,0 -0.75679,-0.75679 -1.53857,-1.53857 -2.23938,-2.23938 -0.44787,-0.44788 -2.23938,0.44788 -2.68726,0 -0.10556,-0.10557 0.10557,-0.34231 0,-0.44788 -0.19557,-0.19557 -4.60807,-0.38322 -5.37451,0 -0.62069,0.31035 -1.09458,1.09458 -1.34363,1.34363 -0.1493,0.14929 -1.19434,0.29859 -1.34363,0.44788 -0.61555,0.61555 -0.82132,1.54297 -1.34363,2.23938 z"
     id="path14-7-7-0" />
  <path
     style="fill:#000000"
     d="m 115.23685,265.88875 c 6.04305,0.4274 -5.90825,-0.44788 3.58301,-0.44788 0.8674,0 2.82398,-0.37951 3.58301,0 1.2766,0.6383 4.99245,2.81888 5.37452,3.58302 0.81949,1.63899 0.29585,1.1916 1.34363,2.23938 0.22394,0.22394 -0.22394,1.11969 0,1.34363 0.52252,0.52252 0.8211,1.26898 1.34363,1.7915 0.45018,0.45019 -0.0702,4.71594 0.44787,6.27027 0.30519,0.91557 -0.64433,3.83443 0,4.47877 1.49528,1.49528 1.79151,-7.96079 1.79151,-9.40541 0,-0.49748 -0.3167,-2.81844 0,-3.13513 0.30152,-0.30152 0.56599,-0.23623 0.89575,-0.89576 0.31421,-0.62842 0.12015,-1.58393 0.44788,-2.23938 0.36511,-0.73021 1.41007,-0.96219 1.7915,-1.34363 0.1493,-0.14929 0.29859,-1.19433 0.44788,-1.34363 0.77008,-0.77008 1.49021,-0.52116 2.23938,-0.89575 0.53888,-0.26944 1.65912,-1.27743 1.79151,-1.34363 0.51729,-0.25864 2.06134,0 2.68726,0 1.19433,0 -0.14929,0.14929 0.44787,-0.44788 0.59717,-0.59716 2.98585,0.59717 3.58302,0 1.05522,-1.05522 -1.47117,-2.36691 -1.79151,-2.68725 -1.40889,-1.4089 -7.30622,-2.09919 -8.95753,-0.44788 -0.467,0.467 -0.74477,4.32778 -0.89575,4.47876 -0.3264,0.3264 -0.90188,0.90188 -1.34363,1.34363 -0.21113,0.21113 -0.68462,-0.21113 -0.89575,0 -0.21114,0.21113 0.21113,0.68463 0,0.89576 -0.27517,0.27516 -1.0437,0.29588 -1.34363,0.89575 -0.13521,0.27042 0.20703,1.13659 0,1.34363 -0.10557,0.10556 -0.38111,-0.13353 -0.44788,0 -0.1562,0.31241 0.0955,5.0221 -0.44788,4.47876 -0.72351,-0.72351 0.69222,-8.26531 0.44788,-8.50965 -0.31039,-0.31039 -0.45801,-1.12476 -0.89575,-1.34363 -0.26707,-0.13353 -0.68463,0.21113 -0.89576,0 -0.75679,-0.75679 -1.53857,-1.53857 -2.23938,-2.23938 -0.44787,-0.44788 -2.23938,0.44788 -2.68726,0 -0.10556,-0.10557 0.10557,-0.34231 0,-0.44788 -0.19557,-0.19557 -4.60807,-0.38322 -5.37451,0 -0.62069,0.31035 -1.09458,1.09458 -1.34363,1.34363 -0.1493,0.14929 -1.19434,0.29859 -1.34363,0.44788 -0.61555,0.61555 -0.82132,1.54297 -1.34363,2.23938 z"
     id="path14-1-4-4" />
  <path
     style="fill:#000000"
     d="m 282.16216,129.4363 c 0.41468,1.2148 0.82389,6.34213 0,7.16602 -0.24905,0.24905 -1.03328,0.72294 -1.34363,1.34363 -0.1352,0.27041 0.20704,1.13659 0,1.34363 -0.338,0.338 -2.38906,3.8812 -1.34363,4.92664 0.17989,0.17988 1.09033,-0.0844 1.34363,0 1.72433,0.57477 5.2165,1.21179 6.27027,-0.89575 0.23887,-0.47774 -0.23886,-1.31378 0,-1.79151 1.03291,-2.06582 0.47582,-5.34658 -0.89575,-6.71815 -0.31669,-0.31669 0.2003,-0.94303 0,-1.34363 -0.0668,-0.13353 -0.29858,0 -0.44787,0 -0.1493,-0.14929 -0.35346,-0.25903 -0.44788,-0.44787 -0.17915,-0.3583 0.17915,-0.98533 0,-1.34363 -0.32598,-0.65197 -2.81001,-2.04431 -3.13514,-2.23938 z"
     id="path15" />
  <path
     style="fill:#000000"
     d="m 297.38996,142.42471 c 0.29621,2.99966 -1.25037,3.48976 -2.68726,4.92664 -0.0863,0.0863 -0.80618,2.06024 -0.89575,2.23939 -1.70997,3.41993 -1.81462,6.71814 2.23938,6.71814 0.59727,0 2.11882,0.28422 2.68726,0 1.78311,-0.89155 1.11972,-7.61385 0.44788,-8.95753 -0.29342,-0.58683 0.32417,-1.67208 0,-2.23938 -0.53413,-0.93472 -1.19434,-1.7915 -1.79151,-2.68726 z"
     id="path16" />
  <path
     style="fill:#000000"
     d="m 270.51738,145.55985 c 0,0.74646 0,1.49292 0,2.23938 0,0.76884 0.84931,3.18158 0,4.03089 -0.33197,0.33196 -0.78773,0.33985 -1.34363,0.89575 -0.21113,0.21113 0.13353,0.62869 0,0.89575 -1.14259,2.28518 -2.23939,1.90861 -2.23939,4.92664 0,0.29859 -0.21113,0.68463 0,0.89576 0.0144,0.0144 2.92295,0.82502 3.13514,0.89575 4.46453,1.48818 4.03089,-2.58301 4.03089,-5.82239 0,-0.82938 0.3531,-2.42894 0,-3.13514 -1.55364,-3.10728 -2.47737,-0.29416 -3.58301,-5.82239 z"
     id="path17" />
  <path
     style="fill:#000000"
     d="m 284.40155,268.27799 c -1.17248,-0.30102 -8.45323,0.50431 -8.95753,0 -0.98192,-0.98191 0.99994,-6.47865 1.34363,-7.16602 0.23887,-0.47774 -0.23887,-1.31377 0,-1.79151 0.11944,-0.23888 0.77631,0.23888 0.89575,0 0.13353,-0.26706 -0.13353,-0.62869 0,-0.89575 0.12783,-0.25566 2.68004,-2.68004 3.13514,-3.13514 0.38612,-0.38612 1.64083,-4.32809 2.23938,-4.92664 0.40826,-0.40826 3.34423,-0.0297 3.58301,0.44788 0.42393,0.84787 0.34225,-0.10563 0.89575,0.44788 0.1493,0.14929 0.29859,1.19433 0.44788,1.34362 0.22394,0.22394 0.67181,0.22394 0.89575,0.44788 0.21113,0.21113 -0.13353,0.62869 0,0.89575 0.62798,1.25596 1.60758,2.3194 2.23938,3.58302 0.65689,1.31377 -0.65688,3.61287 0,4.92664 0.32977,0.65952 0.59424,0.59423 0.89576,0.89575 0.72113,0.72113 -0.20543,5.13206 -0.44788,5.37452 -0.67181,0.67181 -3.35907,-0.67182 -4.03089,0 -0.21113,0.21113 0.21113,0.68462 0,0.89575 -0.59717,0.59717 -0.44787,-0.74646 -0.44787,0.44788 0,1.75508 -0.84962,13.9303 -0.44788,14.33204 1.13833,1.13833 3.36497,-1.56167 4.47876,-0.44787 0.54509,0.54508 -0.44787,3.21926 -0.44787,4.03088 0,0.29859 0.21113,0.68463 0,0.89576 -0.49945,0.49945 -4.14184,0 -4.92664,0 -2.29912,0 -4.00476,-0.44788 -6.27027,-0.44788 -0.18442,0 -1.22508,0.11856 -1.34363,0 -0.23082,-0.23081 -0.16866,-3.69356 0,-4.03089 0.74713,-1.49425 4.01479,0.46397 4.92664,-0.44787 0.35012,-0.35012 -0.38958,-0.77915 -0.44788,-0.89576 -0.13216,-0.26432 0,-1.04259 0,-1.34363 0,-0.79559 0.0783,-8.87922 0,-8.95753 -0.8002,-0.8002 -0.89575,-3.4396 -0.89575,-4.92664"
     id="path18" />
</svg>
